<?xml version="1.0" encoding="UTF-8"?>
<svg id="_圖層_1" data-name="圖層 1" xmlns="http://www.w3.org/2000/svg" viewBox="0 0 184.25 47.01">
  <g>
    <path d="M11.24,32.12h10.03c.21,0,.39-.15.44-.35l.43-2.04h-7.95c-.28,0-.5-.26-.44-.54l2.24-10.52c.06-.28-.15-.54-.44-.54h-5.96c-.28,0-.49-.26-.44-.54l.8-3.9c.04-.21.23-.36.44-.36h15.04c.21,0,.39-.15.44-.35l.43-2.04H8.44c-.21,0-.39.15-.44.36l-1.78,8.68c-.06.28.15.54.44.54h5.93c.28,0,.5.26.44.54l-2.24,10.52c-.06.28.15.54.44.54Z" fill="white"/>
    <path d="M30.97,15.73h-11.7c-.21,0-.39.15-.44.35l-2.28,10.73c-.06.28.15.54.44.54h8.86c.28,0,.5.26.44.54l-1.33,6.25c-.04.21-.23.35-.44.35l-16.1.02c-.21,0-.39.15-.44.35l-.43,2.04h0s18.9-.02,18.9-.02c.21,0,.39-.15.44-.35l2.34-11.03c.06-.28-.15-.54-.44-.54h-8.86c-.28,0-.5-.26-.44-.54l1.26-5.95c.04-.21.23-.35.44-.35h8.9c.21,0,.39-.15.44-.35l.43-2.04h0Z" fill="white"/>
  </g>
  <g>
    <g>
      <path d="M51.17,15.86v2.85h-4.95v15.09h-3.58v-15.09h-4.93v-2.85h13.47Z" fill="white"/>
      <path d="M46.22,33.96h-3.58c-.09,0-.17-.07-.17-.17v-14.93h-4.76c-.09,0-.17-.07-.17-.17v-2.85c0-.09.07-.17.17-.17h13.47c.09,0,.17.07.17.17v2.85c0,.09-.07.17-.17.17h-4.79v14.93c0,.09-.07.17-.17.17ZM42.8,33.63h3.25v-14.93c0-.09.07-.17.17-.17h4.79v-2.52h-13.14v2.52h4.76c.09,0,.17.07.17.17v14.93Z" fill="white"/>
    </g>
    <g>
      <path d="M60.47,15.86v17.94h-3.58V15.86h3.58Z" fill="white"/>
      <path d="M60.46,33.96h-3.58c-.09,0-.17-.07-.17-.17V15.86c0-.09.07-.17.17-.17h3.58c.09,0,.17.07.17.17v17.94c0,.09-.07.17-.17.17ZM57.05,33.63h3.25v-17.61h-3.25v17.61Z" fill="white"/>
    </g>
    <g>
      <path d="M79.62,15.86v2.85h-4.95v15.09h-3.58v-15.09h-4.93v-2.85h13.47Z" fill="white"/>
      <path d="M74.67,33.96h-3.58c-.09,0-.17-.07-.17-.17v-14.93h-4.76c-.09,0-.17-.07-.17-.17v-2.85c0-.09.07-.17.17-.17h13.47c.09,0,.17.07.17.17v2.85c0,.09-.07.17-.17.17h-4.79v14.93c0,.09-.07.17-.17.17ZM71.25,33.63h3.25v-14.93c0-.09.07-.17.17-.17h4.79v-2.52h-13.14v2.52h4.76c.09,0,.17.07.17.17v14.93Z" fill="white"/>
    </g>
    <g>
      <path d="M94.83,27.47l-2.64-7.57-2.64,7.57-.94,2.72-1.27,3.61h-3.78l6.61-17.73h4.09l6.58,17.73h-3.79l-1.24-3.61-.97-2.72Z" fill="white"/>
      <path d="M100.83,33.96h-3.79c-.07,0-.13-.04-.16-.11l-1.24-3.61-.96-2.72s0,0,0,0l-2.49-7.12-4.7,13.45c-.02.07-.08.11-.16.11h-3.78c-.05,0-.1-.03-.14-.07-.03-.04-.04-.1-.02-.15l6.61-17.73c.02-.06.08-.11.15-.11h4.09c.07,0,.13.04.16.11l6.58,17.73c.02.05.01.11-.02.15-.03.04-.08.07-.14.07ZM97.16,33.63h3.43l-6.46-17.4h-3.86l-6.48,17.4h3.43l2.17-6.21,2.64-7.57c.05-.13.27-.13.31,0l4.81,13.79Z" fill="white"/>
    </g>
    <g>
      <path d="M121.84,33.79h-3.58l-8.03-12.19v12.19h-3.58V15.86h3.58l8.03,12.3v-12.3h3.58v17.94Z" fill="white"/>
      <path d="M121.84,33.96h-3.58c-.06,0-.11-.03-.14-.07l-7.73-11.73v11.64c0,.09-.07.17-.17.17h-3.58c-.09,0-.17-.07-.17-.17V15.86c0-.09.07-.17.17-.17h3.58c.06,0,.11.03.14.08l7.73,11.83v-11.74c0-.09.07-.17.17-.17h3.58c.09,0,.17.07.17.17v17.94c0,.09-.07.17-.17.17ZM118.35,33.63h3.33v-17.61h-3.25v12.13c0,.07-.05.14-.12.16-.07.02-.15,0-.19-.07l-7.98-12.22h-3.33v17.61h3.25v-12.03c0-.07.05-.14.12-.16.07-.02.14,0,.19.07l7.98,12.12Z" fill="white"/>
    </g>
    <g>
      <path d="M132.62,18.7v4.65h6.35v2.74h-6.35v4.83h7.11v2.87h-10.7V15.86h10.7v2.85h-7.11Z" fill="white"/>
      <path d="M139.73,33.96h-10.7c-.09,0-.17-.07-.17-.17V15.86c0-.09.07-.17.17-.17h10.7c.09,0,.17.07.17.17v2.85c0,.09-.07.17-.17.17h-6.95v4.32h6.19c.09,0,.17.07.17.17v2.74c0,.09-.07.17-.17.17h-6.19v4.5h6.95c.09,0,.17.07.17.17v2.87c0,.09-.07.17-.17.17ZM129.2,33.63h10.37v-2.54h-6.95c-.09,0-.17-.07-.17-.17v-4.83c0-.09.07-.17.17-.17h6.19v-2.41h-6.19c-.09,0-.17-.07-.17-.17v-4.65c0-.09.07-.17.17-.17h6.95v-2.52h-10.37v17.61Z" fill="white"/>
    </g>
    <g>
      <path d="M156.3,33.79l-4.19-6.99h-1.58v6.99h-3.58V15.86h6.83c2.08,0,3.67.51,4.76,1.52,1.09,1.02,1.64,2.35,1.64,4.01,0,1.36-.38,2.49-1.13,3.41s-1.84,1.52-3.27,1.83l4.47,7.16h-3.96ZM150.53,24.34h2.95c2.05,0,3.07-.91,3.07-2.72,0-.86-.25-1.54-.75-2.02s-1.27-.72-2.32-.72h-2.95v5.46Z" fill="white"/>
      <path d="M160.26,33.96h-3.96c-.06,0-.11-.03-.14-.08l-4.14-6.91h-1.32v6.82c0,.09-.07.17-.17.17h-3.58c-.09,0-.17-.07-.17-.17V15.86c0-.09.07-.17.17-.17h6.83c2.12,0,3.76.53,4.88,1.57,1.12,1.04,1.69,2.43,1.69,4.13,0,1.39-.39,2.57-1.17,3.51-.73.89-1.79,1.51-3.13,1.83l4.35,6.97c.03.05.03.12,0,.17s-.08.08-.14.08ZM156.39,33.63h3.57l-4.31-6.91s-.03-.1-.01-.15c.02-.05.07-.09.12-.1,1.38-.3,2.45-.89,3.17-1.77.72-.88,1.09-1.99,1.09-3.3,0-1.6-.53-2.91-1.59-3.89-1.05-.98-2.62-1.48-4.65-1.48h-6.67v17.61h3.25v-6.82c0-.09.07-.17.17-.17h1.58c.06,0,.11.03.14.08l4.14,6.91ZM153.48,24.51h-2.95c-.09,0-.17-.07-.17-.17v-5.46c0-.09.07-.17.17-.17h2.95c1.09,0,1.91.26,2.44.77.53.51.8,1.23.8,2.14,0,1.91-1.09,2.88-3.24,2.88ZM150.69,24.18h2.78c1.96,0,2.91-.83,2.91-2.55,0-.81-.24-1.45-.7-1.9-.46-.45-1.21-.68-2.21-.68h-2.78v5.13Z" fill="white"/>
    </g>
    <g>
      <path d="M178.12,31.42c-.46.77-1.14,1.39-2.03,1.86-.9.47-1.99.7-3.28.7s-2.41-.22-3.41-.65-1.8-1.05-2.4-1.87c-.6-.81-.94-1.76-1.03-2.85h3.81c.08.73.38,1.33.88,1.82s1.16.72,1.99.72c.75,0,1.32-.2,1.72-.6.4-.4.6-.91.6-1.54,0-.56-.16-1.02-.48-1.38s-.73-.66-1.22-.88c-.49-.22-1.17-.47-2.03-.76-1.12-.37-2.03-.74-2.74-1.11-.71-.36-1.32-.89-1.82-1.59-.5-.7-.75-1.6-.75-2.72,0-1.54.56-2.76,1.66-3.65s2.58-1.33,4.41-1.33,3.41.46,4.54,1.37c1.13.91,1.77,2.13,1.92,3.66h-3.86c-.1-.64-.37-1.17-.81-1.59-.44-.42-1.04-.62-1.8-.62-.66,0-1.19.17-1.6.52-.41.35-.61.85-.61,1.51,0,.53.16.96.47,1.31.31.35.71.63,1.19.85.48.22,1.14.47,1.97.74,1.15.41,2.09.79,2.81,1.14.72.36,1.33.89,1.84,1.6s.76,1.64.76,2.79c0,.91-.23,1.76-.69,2.53Z" fill="white"/>
      <path d="M172.81,34.14c-1.29,0-2.46-.22-3.47-.66-1.02-.44-1.85-1.09-2.47-1.92-.62-.84-.98-1.82-1.06-2.93,0-.05.01-.09.04-.12.03-.03.08-.05.12-.05h3.81c.08,0,.15.06.16.15.08.69.36,1.26.83,1.72.46.45,1.1.68,1.88.68.7,0,1.24-.18,1.6-.55.37-.36.55-.84.55-1.42,0-.52-.14-.94-.44-1.27-.31-.35-.7-.63-1.16-.84-.5-.22-1.17-.48-2.02-.76-1.12-.37-2.05-.75-2.77-1.12-.73-.38-1.36-.93-1.88-1.64-.52-.72-.78-1.67-.78-2.82,0-1.59.58-2.86,1.73-3.77,1.13-.91,2.65-1.37,4.51-1.37s3.49.47,4.64,1.41c1.16.94,1.82,2.21,1.98,3.77,0,.05-.01.09-.04.13-.03.04-.08.05-.12.05h-3.86c-.08,0-.15-.06-.16-.14-.1-.61-.35-1.1-.76-1.49-.41-.38-.97-.58-1.69-.58-.62,0-1.12.16-1.49.48-.37.32-.55.77-.55,1.39,0,.49.14.88.43,1.2.3.33.68.6,1.14.81.48.22,1.14.47,1.95.73,1.16.41,2.11.8,2.83,1.15.74.37,1.38.92,1.9,1.65.53.74.79,1.71.79,2.89,0,.94-.24,1.82-.71,2.61h0c-.47.79-1.17,1.44-2.1,1.92-.92.48-2.04.72-3.35.72ZM166.16,28.78c.1.97.43,1.84.98,2.58.58.79,1.37,1.4,2.33,1.81.97.42,2.09.63,3.34.63s2.33-.23,3.2-.68c.87-.45,1.53-1.06,1.97-1.79h0c.44-.74.66-1.56.66-2.44,0-1.11-.25-2.02-.73-2.7-.49-.68-1.09-1.21-1.78-1.55-.71-.35-1.65-.73-2.79-1.13-.82-.27-1.49-.52-1.98-.74-.5-.23-.92-.53-1.25-.89-.34-.37-.51-.85-.51-1.42,0-.71.22-1.26.67-1.64.44-.37,1.01-.56,1.71-.56.8,0,1.45.22,1.92.67.43.41.71.93.84,1.54h3.54c-.18-1.39-.8-2.52-1.84-3.37-1.09-.89-2.58-1.33-4.43-1.33s-3.23.44-4.3,1.3c-1.06.85-1.6,2.04-1.6,3.52,0,1.08.24,1.96.72,2.62.48.67,1.07,1.19,1.76,1.54.7.36,1.62.73,2.72,1.1.85.28,1.54.54,2.05.77.51.23.94.54,1.28.92.35.39.52.9.52,1.49,0,.67-.22,1.23-.65,1.65-.43.43-1.04.64-1.83.64-.87,0-1.58-.26-2.11-.77-.49-.47-.8-1.07-.91-1.77h-3.49Z" fill="white"/>
    </g>
  </g>
</svg>