<svg xmlns="http://www.w3.org/2000/svg" viewBox="38 18 100 106">
  <path fill="white" d="M 60.96875 102.066406 L 98.492188 102.066406 C 99.28125 102.066406 99.960938 101.515625 100.125 100.742188 L 101.746094 93.117188 L 72.015625 93.117188 C 70.953125 93.117188 70.160156 92.140625 70.378906 91.101562 L 78.746094 51.738281 C 78.96875 50.703125 78.175781 49.722656 77.113281 49.722656 L 54.824219 49.722656 C 53.769531 49.722656 52.980469 48.753906 53.191406 47.71875 L 56.175781 33.128906 C 56.332031 32.355469 57.019531 31.796875 57.8125 31.796875 L 114.066406 31.796875 C 114.855469 31.796875 115.539062 31.246094 115.699219 30.472656 L 117.320312 22.851562 L 50.511719 22.851562 C 49.71875 22.851562 49.035156 23.40625 48.875 24.183594 L 42.230469 56.664062 C 42.015625 57.699219 42.808594 58.667969 43.863281 58.667969 L 66.070312 58.667969 C 67.132812 58.667969 67.921875 59.648438 67.703125 60.6875 L 59.335938 100.046875 C 59.113281 101.085938 59.90625 102.066406 60.96875 102.066406"/>
  <path fill="white" d="M 134.800781 40.75 L 91.011719 40.75 C 90.226562 40.75 89.542969 41.300781 89.378906 42.070312 L 80.847656 82.214844 C 80.625 83.25 81.417969 84.230469 82.480469 84.230469 L 115.617188 84.230469 C 116.679688 84.230469 117.472656 85.207031 117.25 86.246094 L 112.277344 109.640625 C 112.113281 110.410156 111.433594 110.960938 110.644531 110.960938 L 50.421875 111.042969 C 49.632812 111.042969 48.953125 111.59375 48.789062 112.363281 L 47.171875 119.984375 L 47.171875 119.992188 L 117.894531 119.894531 C 118.679688 119.894531 119.359375 119.34375 119.523438 118.574219 L 128.296875 77.300781 C 128.519531 76.261719 127.726562 75.285156 126.664062 75.285156 L 93.527344 75.285156 C 92.464844 75.285156 91.671875 74.304688 91.894531 73.265625 L 96.625 51.019531 C 96.789062 50.246094 97.46875 49.695312 98.257812 49.695312 L 131.550781 49.695312 C 132.339844 49.695312 133.019531 49.144531 133.183594 48.375 L 134.800781 40.753906 Z"/>
</svg>