<svg xmlns="http://www.w3.org/2000/svg" viewBox="0 0 37 47">

    <path d="M11.24,32.12h10.03c.21,0,.39-.15.44-.35l.43-2.04h-7.95c-.28,0-.5-.26-.44-.54l2.24-10.52c.06-.28-.15-.54-.44-.54h-5.96c-.28,0-.49-.26-.44-.54l.8-3.9c.04-.21.23-.36.44-.36h15.04c.21,0,.39-.15.44-.35l.43-2.04H8.44c-.21,0-.39.15-.44.36l-1.78,8.68c-.06.28.15.54.44.54h5.93c.28,0,.5.26.44.54l-2.24,10.52c-.06.28.15.54.44.54Z" fill="white"/>
    <path d="M30.97,15.73h-11.7c-.21,0-.39.15-.44.35l-2.28,10.73c-.06.28.15.54.44.54h8.86c.28,0,.5.26.44.54l-1.33,6.25c-.04.21-.23.35-.44.35l-16.1.02c-.21,0-.39.15-.44.35l-.43,2.04h0s18.9-.02,18.9-.02c.21,0,.39-.15.44-.35l2.34-11.03c.06-.28-.15-.54-.44-.54h-8.86c-.28,0-.5-.26-.44-.54l1.26-5.95c.04-.21.23-.35.44-.35h8.9c.21,0,.39-.15.44-.35l.43-2.04h0Z" fill="white"/>
  
</svg>